<svg xmlns="http://www.w3.org/2000/svg" width="288" height="83" viewBox="0 0 288 83" fill="none"><circle cx="67.3783" cy="57.2266" r="16.2471" fill="#00B807"></circle><circle cx="50.7145" cy="41.3961" r="31.2444" stroke="white" stroke-width="1.66637"></circle><path d="M62.0602 53.2011C61.3631 53.2011 60.6947 52.9242 60.2018 52.4314C59.7089 51.9385 59.4321 51.27 59.4321 50.573C59.4321 49.876 59.7089 49.2075 60.2018 48.7147C60.6947 48.2218 61.3631 47.9449 62.0602 47.9449C62.7572 47.9449 63.4257 48.2218 63.9185 48.7147C64.4114 49.2075 64.6883 49.876 64.6883 50.573C64.6883 51.27 64.4114 51.9385 63.9185 52.4314C63.4257 52.9242 62.7572 53.2011 62.0602 53.2011ZM64.6883 37.4325L68.1223 41.8126L60.3081 41.8126L60.3081 37.4325M41.0353 53.2011C40.3383 53.2011 39.6698 52.9242 39.1769 52.4314C38.6841 51.9385 38.4072 51.27 38.4072 50.573C38.4072 49.876 38.6841 49.2075 39.1769 48.7147C39.6698 48.2218 40.3383 47.9449 41.0353 47.9449C41.7323 47.9449 42.4008 48.2218 42.8936 48.7147C43.3865 49.2075 43.6634 49.876 43.6634 50.573C43.6634 51.27 43.3865 51.9385 42.8936 52.4314C42.4008 52.9242 41.7323 53.2011 41.0353 53.2011ZM65.5643 34.8043L60.3081 34.8043L60.3081 27.7961L35.7791 27.7961C33.8342 27.7961 32.2749 29.3554 32.2749 31.3002L32.2749 50.573L35.7791 50.573C35.7791 51.9671 36.3328 53.304 37.3186 54.2897C38.3043 55.2755 39.6412 55.8292 41.0353 55.8292C42.4293 55.8292 43.7663 55.2755 44.752 54.2897C45.7377 53.304 46.2915 51.9671 46.2915 50.573L56.8039 50.573C56.8039 51.9671 57.3577 53.304 58.3435 54.2897C59.3292 55.2755 60.6661 55.8292 62.0602 55.8292C63.4542 55.8292 64.7911 55.2755 65.7769 54.2897C66.7626 53.304 67.3164 51.9671 67.3164 50.573L70.8205 50.573L70.8205 41.8126L65.5643 34.8043Z" fill="white"></path><path d="M102.37 27.2135L102.37 30.6695L107.342 30.6695L107.342 31.8876L102.37 31.8876L102.37 35.8961L100.954 35.8961L100.954 25.9812L107.951 25.9812L107.951 27.2135L102.37 27.2135ZM116.574 35.8961L114.435 32.8508C114.171 32.8697 113.963 32.8791 113.812 32.8791L111.361 32.8791L111.361 35.8961L109.945 35.8961L109.945 25.9812L113.812 25.9812C115.096 25.9812 116.106 26.2881 116.843 26.9019C117.579 27.5156 117.948 28.3608 117.948 29.4372C117.948 30.2021 117.759 30.8537 117.381 31.3919C117.003 31.9301 116.465 32.322 115.766 32.5675L118.118 35.8961L116.574 35.8961ZM113.769 31.6752C114.666 31.6752 115.351 31.4816 115.823 31.0944C116.295 30.7073 116.531 30.1549 116.531 29.4372C116.531 28.7196 116.295 28.1719 115.823 27.7942C115.351 27.4071 114.666 27.2135 113.769 27.2135L111.361 27.2135L111.361 31.6752L113.769 31.6752ZM127.431 34.6638L127.431 35.8961L120.236 35.8961L120.236 25.9812L127.233 25.9812L127.233 27.2135L121.652 27.2135L121.652 30.2588L126.624 30.2588L126.624 31.4627L121.652 31.4627L121.652 34.6638L127.431 34.6638ZM131.694 27.2135L128.294 27.2135L128.294 25.9812L136.495 25.9812L136.495 27.2135L133.096 27.2135L133.096 35.8961L131.694 35.8961L131.694 27.2135ZM145.233 34.6638L145.233 35.8961L138.038 35.8961L138.038 25.9812L145.035 25.9812L145.035 27.2135L139.454 27.2135L139.454 30.2588L144.426 30.2588L144.426 31.4627L139.454 31.4627L139.454 34.6638L145.233 34.6638ZM158.2 30.882L159.56 30.882L159.56 34.7488C159.069 35.1548 158.498 35.4664 157.846 35.6836C157.195 35.9008 156.515 36.0094 155.807 36.0094C154.806 36.0094 153.904 35.7922 153.101 35.3579C152.299 34.914 151.666 34.3097 151.203 33.5448C150.75 32.7705 150.523 31.9018 150.523 30.9386C150.523 29.9755 150.75 29.1068 151.203 28.3324C151.666 27.5581 152.299 26.9538 153.101 26.5194C153.913 26.0851 154.825 25.8679 155.835 25.8679C156.628 25.8679 157.346 26.0001 157.988 26.2645C158.639 26.5194 159.192 26.8971 159.645 27.3976L158.767 28.2758C157.974 27.5109 157.015 27.1285 155.892 27.1285C155.136 27.1285 154.456 27.2937 153.852 27.6242C153.257 27.9453 152.79 28.3985 152.45 28.984C152.11 29.56 151.94 30.2116 151.94 30.9386C151.94 31.6563 152.11 32.3078 152.45 32.8933C152.79 33.4693 153.257 33.9226 153.852 34.253C154.456 34.5835 155.131 34.7488 155.877 34.7488C156.765 34.7488 157.539 34.5363 158.2 34.1114L158.2 30.882ZM168.901 35.8961L166.762 32.8508C166.498 32.8697 166.29 32.8791 166.139 32.8791L163.688 32.8791L163.688 35.8961L162.272 35.8961L162.272 25.9812L166.139 25.9812C167.423 25.9812 168.433 26.2881 169.17 26.9019C169.906 27.5156 170.275 28.3608 170.275 29.4372C170.275 30.2021 170.086 30.8537 169.708 31.3919C169.33 31.9301 168.792 32.322 168.093 32.5675L170.445 35.8961L168.901 35.8961ZM166.096 31.6752C166.993 31.6752 167.678 31.4816 168.15 31.0944C168.622 30.7073 168.858 30.1549 168.858 29.4372C168.858 28.7196 168.622 28.1719 168.15 27.7942C167.678 27.4071 166.993 27.2135 166.096 27.2135L163.688 27.2135L163.688 31.6752L166.096 31.6752ZM178.88 33.4174L173.611 33.4174L172.521 35.8961L171.062 35.8961L175.552 25.9812L176.954 25.9812L181.458 35.8961L179.971 35.8961L178.88 33.4174ZM178.385 32.2842L176.246 27.4259L174.107 32.2842L178.385 32.2842ZM177.124 23.3325L178.852 23.3325L176.472 25.1738L175.198 25.1738L177.124 23.3325ZM184.408 27.2135L181.009 27.2135L181.009 25.9812L189.21 25.9812L189.21 27.2135L185.81 27.2135L185.81 35.8961L184.408 35.8961L184.408 27.2135ZM190.752 25.9812L192.169 25.9812L192.169 35.8961L190.752 35.8961L190.752 25.9812ZM198.027 36.0094C197.281 36.0094 196.558 35.8961 195.86 35.6695C195.17 35.4334 194.627 35.1312 194.231 34.763L194.755 33.6582C195.132 33.9981 195.614 34.2767 196.199 34.4938C196.794 34.7016 197.403 34.8055 198.027 34.8055C198.848 34.8055 199.462 34.6685 199.868 34.3947C200.274 34.1114 200.477 33.7384 200.477 33.2757C200.477 32.9358 200.364 32.6619 200.137 32.4542C199.92 32.237 199.646 32.0718 199.316 31.9585C198.995 31.8451 198.537 31.7177 197.942 31.576C197.196 31.3966 196.591 31.2172 196.129 31.0378C195.675 30.8584 195.284 30.5845 194.953 30.2163C194.632 29.8386 194.471 29.3334 194.471 28.7007C194.471 28.1719 194.608 27.6951 194.882 27.2701C195.165 26.8452 195.59 26.5053 196.157 26.2503C196.724 25.9954 197.427 25.8679 198.267 25.8679C198.853 25.8679 199.429 25.9434 199.995 26.0945C200.562 26.2456 201.048 26.4628 201.454 26.7461L200.987 27.8792C200.571 27.6148 200.128 27.4165 199.656 27.2843C199.183 27.1427 198.721 27.0718 198.267 27.0718C197.465 27.0718 196.86 27.2182 196.454 27.5109C196.058 27.8037 195.86 28.1814 195.86 28.6441C195.86 28.984 195.973 29.2626 196.199 29.4797C196.426 29.6875 196.705 29.8527 197.035 29.9755C197.375 30.0888 197.833 30.2116 198.409 30.3438C199.155 30.5232 199.755 30.7026 200.208 30.882C200.661 31.0614 201.048 31.3352 201.369 31.7035C201.7 32.0718 201.865 32.5675 201.865 33.1907C201.865 33.7101 201.723 34.1869 201.44 34.6213C201.157 35.0462 200.727 35.3862 200.151 35.6411C199.575 35.8866 198.867 36.0094 198.027 36.0094ZM211.605 25.9812C212.889 25.9812 213.9 26.2881 214.636 26.9019C215.373 27.5156 215.741 28.3608 215.741 29.4372C215.741 30.5137 215.373 31.3588 214.636 31.9726C213.9 32.5864 212.889 32.8933 211.605 32.8933L209.155 32.8933L209.155 35.8961L207.738 35.8961L207.738 25.9812L211.605 25.9812ZM211.563 31.661C212.46 31.661 213.144 31.4722 213.616 31.0944C214.088 30.7073 214.325 30.1549 214.325 29.4372C214.325 28.7196 214.088 28.1719 213.616 27.7942C213.144 27.4071 212.46 27.2135 211.563 27.2135L209.155 27.2135L209.155 31.661L211.563 31.661ZM223.641 33.4174L218.372 33.4174L217.281 35.8961L215.823 35.8961L220.313 25.9812L221.715 25.9812L226.219 35.8961L224.732 35.8961L223.641 33.4174ZM223.145 32.2842L221.007 27.4259L218.868 32.2842L223.145 32.2842ZM234.327 35.8961L232.188 32.8508C231.924 32.8697 231.716 32.8791 231.565 32.8791L229.114 32.8791L229.114 35.8961L227.698 35.8961L227.698 25.9812L231.565 25.9812C232.849 25.9812 233.859 26.2881 234.596 26.9019C235.333 27.5156 235.701 28.3608 235.701 29.4372C235.701 30.2021 235.512 30.8537 235.134 31.3919C234.757 31.9301 234.218 32.322 233.52 32.5675L235.871 35.8961L234.327 35.8961ZM231.522 31.6752C232.419 31.6752 233.104 31.4816 233.576 31.0944C234.048 30.7073 234.284 30.1549 234.284 29.4372C234.284 28.7196 234.048 28.1719 233.576 27.7942C233.104 27.4071 232.419 27.2135 231.522 27.2135L229.114 27.2135L229.114 31.6752L231.522 31.6752ZM244.306 33.4174L239.037 33.4174L237.947 35.8961L236.488 35.8961L240.978 25.9812L242.38 25.9812L246.884 35.8961L245.397 35.8961L244.306 33.4174ZM243.811 32.2842L241.672 27.4259L239.533 32.2842L243.811 32.2842ZM103.846 48.038L99.5468 48.038L99.5468 44.8986L112.085 44.8986L112.085 48.038L107.805 48.038L107.805 58.8961L103.846 58.8961L103.846 48.038ZM120.423 59.176C118.943 59.176 117.61 58.8628 116.424 58.2362C115.251 57.6097 114.324 56.7431 113.644 55.6367C112.978 54.5302 112.644 53.2838 112.644 51.8973C112.644 50.5109 112.978 49.2645 113.644 48.158C114.324 47.0515 115.251 46.185 116.424 45.5585C117.61 44.9319 118.943 44.6186 120.423 44.6186C121.903 44.6186 123.229 44.9319 124.402 45.5585C125.589 46.185 126.515 47.0515 127.182 48.158C127.862 49.2645 128.202 50.5109 128.202 51.8973C128.202 53.2838 127.862 54.5302 127.182 55.6367C126.515 56.7431 125.589 57.6097 124.402 58.2362C123.229 58.8628 121.903 59.176 120.423 59.176ZM120.423 55.8966C121.13 55.8966 121.769 55.73 122.343 55.3967C122.916 55.0634 123.369 54.5969 123.702 53.997C124.036 53.3837 124.202 52.6839 124.202 51.8973C124.202 51.1108 124.036 50.4176 123.702 49.8177C123.369 49.2045 122.916 48.7312 122.343 48.398C121.769 48.0647 121.13 47.8981 120.423 47.8981C119.716 47.8981 119.077 48.0647 118.503 48.398C117.93 48.7312 117.477 49.2045 117.144 49.8177C116.81 50.4176 116.644 51.1108 116.644 51.8973C116.644 52.6839 116.81 53.3837 117.144 53.997C117.477 54.5969 117.93 55.0634 118.503 55.3967C119.077 55.73 119.716 55.8966 120.423 55.8966ZM130.275 44.8986L136.894 44.8986C138.427 44.8986 139.787 45.1852 140.973 45.7584C142.16 46.3317 143.08 47.1449 143.733 48.198C144.386 49.2512 144.713 50.4843 144.713 51.8973C144.713 53.3104 144.386 54.5435 143.733 55.5967C143.08 56.6498 142.16 57.463 140.973 58.0362C139.787 58.6095 138.427 58.8961 136.894 58.8961L130.275 58.8961L130.275 44.8986ZM136.734 55.7367C137.934 55.7367 138.894 55.3967 139.614 54.7168C140.347 54.037 140.713 53.0971 140.713 51.8973C140.713 50.6976 140.347 49.7577 139.614 49.0778C138.894 48.398 137.934 48.058 136.734 48.058L134.235 48.058L134.235 55.7367L136.734 55.7367ZM153.855 59.176C152.375 59.176 151.042 58.8628 149.855 58.2362C148.682 57.6097 147.756 56.7431 147.076 55.6367C146.409 54.5302 146.076 53.2838 146.076 51.8973C146.076 50.5109 146.409 49.2645 147.076 48.158C147.756 47.0515 148.682 46.185 149.855 45.5585C151.042 44.9319 152.375 44.6186 153.855 44.6186C155.334 44.6186 156.661 44.9319 157.834 45.5585C159.02 46.185 159.947 47.0515 160.613 48.158C161.293 49.2645 161.633 50.5109 161.633 51.8973C161.633 53.2838 161.293 54.5302 160.613 55.6367C159.947 56.7431 159.02 57.6097 157.834 58.2362C156.661 58.8628 155.334 59.176 153.855 59.176ZM153.855 55.8966C154.561 55.8966 155.201 55.73 155.774 55.3967C156.347 55.0634 156.801 54.5969 157.134 53.997C157.467 53.3837 157.634 52.6839 157.634 51.8973C157.634 51.1108 157.467 50.4176 157.134 49.8177C156.801 49.2045 156.347 48.7312 155.774 48.398C155.201 48.0647 154.561 47.8981 153.855 47.8981C153.148 47.8981 152.508 48.0647 151.935 48.398C151.362 48.7312 150.908 49.2045 150.575 49.8177C150.242 50.4176 150.075 51.1108 150.075 51.8973C150.075 52.6839 150.242 53.3837 150.575 53.997C150.908 54.5969 151.362 55.0634 151.935 55.3967C152.508 55.73 153.148 55.8966 153.855 55.8966ZM176.585 59.176C175.105 59.176 173.772 58.8628 172.586 58.2362C171.412 57.6097 170.486 56.7431 169.806 55.6367C169.14 54.5302 168.806 53.2838 168.806 51.8973C168.806 50.5109 169.14 49.2645 169.806 48.158C170.486 47.0515 171.412 46.185 172.586 45.5585C173.772 44.9319 175.105 44.6186 176.585 44.6186C178.065 44.6186 179.391 44.9319 180.564 45.5585C181.751 46.185 182.677 47.0515 183.344 48.158C184.023 49.2645 184.363 50.5109 184.363 51.8973C184.363 53.2838 184.023 54.5302 183.344 55.6367C182.677 56.7431 181.751 57.6097 180.564 58.2362C179.391 58.8628 178.065 59.176 176.585 59.176ZM176.585 55.8966C177.291 55.8966 177.931 55.73 178.504 55.3967C179.078 55.0634 179.531 54.5969 179.864 53.997C180.198 53.3837 180.364 52.6839 180.364 51.8973C180.364 51.1108 180.198 50.4176 179.864 49.8177C179.531 49.2045 179.078 48.7312 178.504 48.398C177.931 48.0647 177.291 47.8981 176.585 47.8981C175.878 47.8981 175.238 48.0647 174.665 48.398C174.092 48.7312 173.639 49.2045 173.305 49.8177C172.972 50.4176 172.806 51.1108 172.806 51.8973C172.806 52.6839 172.972 53.3837 173.305 53.997C173.639 54.5969 174.092 55.0634 174.665 55.3967C175.238 55.73 175.878 55.8966 176.585 55.8966ZM203.014 51.5974C203.814 51.8773 204.441 52.3173 204.894 52.9172C205.347 53.5037 205.574 54.2169 205.574 55.0568C205.574 56.2832 205.081 57.2297 204.094 57.8963C203.108 58.5628 201.681 58.8961 199.815 58.8961L192.256 58.8961L192.256 44.8986L199.415 44.8986C201.201 44.8986 202.561 45.2319 203.494 45.8984C204.428 46.5516 204.894 47.4381 204.894 48.5579C204.894 49.2245 204.727 49.8244 204.394 50.3576C204.074 50.8775 203.614 51.2908 203.014 51.5974ZM196.176 47.7581L196.176 50.4576L198.895 50.4576C200.228 50.4576 200.895 50.0043 200.895 49.0978C200.895 48.2047 200.228 47.7581 198.895 47.7581L196.176 47.7581ZM199.495 56.0366C200.882 56.0366 201.575 55.5634 201.575 54.6169C201.575 53.6704 200.882 53.1971 199.495 53.1971L196.176 53.1971L196.176 56.0366L199.495 56.0366ZM213.744 55.1768L211.584 55.1768L211.584 58.8961L207.625 58.8961L207.625 44.8986L214.024 44.8986C215.29 44.8986 216.39 45.1119 217.323 45.5385C218.256 45.9517 218.976 46.5516 219.483 47.3382C219.989 48.1114 220.242 49.0245 220.242 50.0777C220.242 51.0908 220.003 51.9773 219.523 52.7372C219.056 53.4837 218.383 54.0703 217.503 54.4969L220.522 58.8961L216.283 58.8961L213.744 55.1768ZM216.243 50.0777C216.243 49.4245 216.037 48.9179 215.623 48.5579C215.21 48.198 214.597 48.018 213.784 48.018L211.584 48.018L211.584 52.1173L213.784 52.1173C214.597 52.1173 215.21 51.944 215.623 51.5974C216.037 51.2375 216.243 50.7309 216.243 50.0777ZM231.805 56.1766L225.886 56.1766L224.786 58.8961L220.747 58.8961L226.926 44.8986L230.825 44.8986L237.024 58.8961L232.905 58.8961L231.805 56.1766ZM230.645 53.2571L228.846 48.7779L227.046 53.2571L230.645 53.2571ZM243.066 59.176C241.933 59.176 240.833 59.0361 239.766 58.7561C238.7 58.4762 237.833 58.1029 237.167 57.6363L238.467 54.7168C239.093 55.1301 239.82 55.4634 240.646 55.7167C241.473 55.9699 242.286 56.0966 243.086 56.0966C244.605 56.0966 245.365 55.7167 245.365 54.9568C245.365 54.5569 245.145 54.2636 244.705 54.077C244.279 53.877 243.586 53.6704 242.626 53.4571C241.573 53.2304 240.693 52.9905 239.986 52.7372C239.28 52.4706 238.673 52.0506 238.167 51.4774C237.66 50.9042 237.407 50.131 237.407 49.1578C237.407 48.3047 237.64 47.5381 238.107 46.8582C238.573 46.165 239.266 45.6185 240.186 45.2185C241.119 44.8186 242.259 44.6186 243.606 44.6186C244.525 44.6186 245.432 44.7253 246.325 44.9386C247.218 45.1386 248.005 45.4385 248.685 45.8384L247.465 48.7779C246.132 48.058 244.839 47.6981 243.586 47.6981C242.799 47.6981 242.226 47.8181 241.866 48.058C241.506 48.2847 241.326 48.5846 241.326 48.9579C241.326 49.3311 241.539 49.6111 241.966 49.7977C242.393 49.9844 243.079 50.1777 244.026 50.3776C245.092 50.6042 245.972 50.8509 246.665 51.1175C247.372 51.3708 247.978 51.784 248.485 52.3573C249.005 52.9172 249.265 53.6837 249.265 54.6568C249.265 55.4967 249.031 56.2566 248.565 56.9364C248.098 57.6163 247.398 58.1629 246.465 58.5761C245.532 58.9761 244.399 59.176 243.066 59.176ZM251.094 44.8986L255.053 44.8986L255.053 58.8961L251.094 58.8961L251.094 44.8986ZM257.87 44.8986L261.829 44.8986L261.829 55.7567L268.508 55.7567L268.508 58.8961L257.87 58.8961L257.87 44.8986Z" fill="white"></path></svg>