<svg xmlns="http://www.w3.org/2000/svg" width="288" height="84" viewBox="0 0 288 84" fill="none"><circle cx="67.3783" cy="58.1584" r="16.2471" fill="#00B807"></circle><circle cx="50.7147" cy="42.3279" r="31.2444" stroke="white" stroke-width="1.66637"></circle><path d="M61.3452 56.6049L39.0985 56.6049L39.0985 60.3127L35.3908 60.3127L35.3908 56.6049L33.5369 56.6049C33.0452 56.6049 32.5736 56.4096 32.226 56.0619C31.8783 55.7142 31.683 55.2427 31.683 54.751L31.683 26.9426C31.683 26.451 31.8783 25.9794 32.226 25.6317C32.5736 25.2841 33.0452 25.0887 33.5369 25.0887L66.9069 25.0887C67.3986 25.0887 67.8701 25.2841 68.2178 25.6317C68.5655 25.9794 68.7608 26.451 68.7608 26.9426L68.7608 54.751C68.7608 55.2427 68.5655 55.7142 68.2178 56.0619C67.8701 56.4096 67.3986 56.6049 66.9069 56.6049L65.053 56.6049L65.053 60.3127L61.3452 60.3127L61.3452 56.6049ZM48.368 45.248L48.368 51.0432L52.0758 51.0432L52.0758 45.248C53.8194 44.7924 55.3375 43.7178 56.3468 42.2249C57.3561 40.7319 57.7874 38.9227 57.5604 37.1349C57.3334 35.3472 56.4634 33.7032 55.113 32.5099C53.7626 31.3167 52.024 30.6557 50.2219 30.6504C48.4157 30.6486 46.671 31.3061 45.3152 32.4994C43.9593 33.6928 43.0856 35.3399 42.8581 37.1317C42.6305 38.9235 43.0647 40.7367 44.0792 42.2311C45.0937 43.7255 46.6187 44.7982 48.368 45.248ZM50.2219 41.7738C49.2385 41.7738 48.2954 41.3831 47.6001 40.6878C46.9048 39.9924 46.5141 39.0494 46.5141 38.066C46.5141 37.0826 46.9048 36.1395 47.6001 35.4442C48.2954 34.7488 49.2385 34.3582 50.2219 34.3582C51.2053 34.3582 52.1484 34.7488 52.8437 35.4442C53.539 36.1395 53.9297 37.0826 53.9297 38.066C53.9297 39.0494 53.539 39.9924 52.8437 40.6878C52.1484 41.3831 51.2053 41.7738 50.2219 41.7738Z" fill="white"></path><path d="M105.387 33.9413C104.396 33.9413 103.499 33.7241 102.696 33.2897C101.903 32.8459 101.28 32.2416 100.827 31.4767C100.373 30.7024 100.147 29.8337 100.147 28.8705C100.147 27.9074 100.373 27.0434 100.827 26.2785C101.28 25.5042 101.908 24.8999 102.71 24.4655C103.513 24.0217 104.41 23.7998 105.402 23.7998C106.176 23.7998 106.884 23.932 107.526 24.1964C108.168 24.4513 108.716 24.8338 109.169 25.3437L108.249 26.236C107.503 25.4523 106.572 25.0604 105.458 25.0604C104.722 25.0604 104.056 25.2256 103.461 25.5561C102.866 25.8866 102.399 26.3446 102.059 26.93C101.728 27.5061 101.563 28.1529 101.563 28.8705C101.563 29.5882 101.728 30.2397 102.059 30.8252C102.399 31.4012 102.866 31.8544 103.461 32.1849C104.056 32.5154 104.722 32.6807 105.458 32.6807C106.563 32.6807 107.493 32.2841 108.249 31.4909L109.169 32.3832C108.716 32.8931 108.164 33.2803 107.512 33.5447C106.87 33.8091 106.162 33.9413 105.387 33.9413ZM115.458 33.9413C114.457 33.9413 113.555 33.7241 112.753 33.2897C111.95 32.8459 111.318 32.2369 110.855 31.4626C110.402 30.6883 110.175 29.8242 110.175 28.8705C110.175 27.9168 110.402 27.0528 110.855 26.2785C111.318 25.5042 111.95 24.8999 112.753 24.4655C113.555 24.0217 114.457 23.7998 115.458 23.7998C116.45 23.7998 117.347 24.0217 118.149 24.4655C118.952 24.8999 119.58 25.5042 120.033 26.2785C120.486 27.0434 120.713 27.9074 120.713 28.8705C120.713 29.8337 120.486 30.7024 120.033 31.4767C119.58 32.2416 118.952 32.8459 118.149 33.2897C117.347 33.7241 116.45 33.9413 115.458 33.9413ZM115.458 32.6807C116.185 32.6807 116.837 32.5154 117.413 32.1849C117.998 31.8544 118.456 31.4012 118.787 30.8252C119.127 30.2397 119.297 29.5882 119.297 28.8705C119.297 28.1529 119.127 27.5061 118.787 26.93C118.456 26.3446 117.998 25.8866 117.413 25.5561C116.837 25.2256 116.185 25.0604 115.458 25.0604C114.731 25.0604 114.07 25.2256 113.475 25.5561C112.89 25.8866 112.427 26.3446 112.087 26.93C111.757 27.5061 111.591 28.1529 111.591 28.8705C111.591 29.5882 111.757 30.2397 112.087 30.8252C112.427 31.4012 112.89 31.8544 113.475 32.1849C114.07 32.5154 114.731 32.6807 115.458 32.6807ZM132.071 33.828L132.056 26.6043L128.473 32.624L127.821 32.624L124.238 26.6468L124.238 33.828L122.878 33.828L122.878 23.9131L124.039 23.9131L128.175 30.8818L132.255 23.9131L133.416 23.9131L133.43 33.828L132.071 33.828ZM140.273 23.9131C141.557 23.9131 142.567 24.22 143.304 24.8338C144.04 25.4475 144.409 26.2927 144.409 27.3691C144.409 28.4456 144.04 29.2907 143.304 29.9045C142.567 30.5183 141.557 30.8252 140.273 30.8252L137.822 30.8252L137.822 33.828L136.406 33.828L136.406 23.9131L140.273 23.9131ZM140.23 29.5929C141.127 29.5929 141.812 29.404 142.284 29.0263C142.756 28.6392 142.992 28.0868 142.992 27.3691C142.992 26.6515 142.756 26.1038 142.284 25.7261C141.812 25.3389 141.127 25.1454 140.23 25.1454L137.822 25.1454L137.822 29.5929L140.23 29.5929ZM153.118 33.828L150.98 30.7827C150.715 30.8016 150.507 30.811 150.356 30.811L147.906 30.811L147.906 33.828L146.489 33.828L146.489 23.9131L150.356 23.9131C151.64 23.9131 152.651 24.22 153.387 24.8338C154.124 25.4475 154.492 26.2927 154.492 27.3691C154.492 28.134 154.303 28.7855 153.926 29.3238C153.548 29.862 153.01 30.2539 152.311 30.4994L154.662 33.828L153.118 33.828ZM150.314 29.6071C151.211 29.6071 151.895 29.4135 152.368 29.0263C152.84 28.6392 153.076 28.0868 153.076 27.3691C153.076 26.6515 152.84 26.1038 152.368 25.7261C151.895 25.3389 151.211 25.1454 150.314 25.1454L147.906 25.1454L147.906 29.6071L150.314 29.6071ZM163.098 31.3493L157.829 31.3493L156.738 33.828L155.279 33.828L159.769 23.9131L161.171 23.9131L165.676 33.828L164.188 33.828L163.098 31.3493ZM162.602 30.2161L160.463 25.3578L158.324 30.2161L162.602 30.2161ZM173.848 33.9413C173.102 33.9413 172.38 33.828 171.681 33.6013C170.992 33.3653 170.449 33.0631 170.052 32.6948L170.576 31.59C170.954 31.93 171.435 32.2085 172.021 32.4257C172.616 32.6335 173.225 32.7373 173.848 32.7373C174.67 32.7373 175.283 32.6004 175.689 32.3266C176.095 32.0433 176.298 31.6703 176.298 31.2076C176.298 30.8677 176.185 30.5938 175.958 30.3861C175.741 30.1689 175.467 30.0037 175.137 29.8903C174.816 29.777 174.358 29.6496 173.763 29.5079C173.017 29.3285 172.413 29.1491 171.95 28.9697C171.497 28.7903 171.105 28.5164 170.774 28.1482C170.453 27.7704 170.293 27.2653 170.293 26.6326C170.293 26.1038 170.43 25.6269 170.704 25.202C170.987 24.7771 171.412 24.4372 171.978 24.1822C172.545 23.9272 173.248 23.7998 174.089 23.7998C174.674 23.7998 175.25 23.8753 175.817 24.0264C176.383 24.1775 176.87 24.3947 177.276 24.6779L176.808 25.8111C176.393 25.5467 175.949 25.3484 175.477 25.2162C175.005 25.0745 174.542 25.0037 174.089 25.0037C173.286 25.0037 172.682 25.1501 172.276 25.4428C171.879 25.7355 171.681 26.1132 171.681 26.5759C171.681 26.9159 171.794 27.1944 172.021 27.4116C172.247 27.6194 172.526 27.7846 172.857 27.9074C173.196 28.0207 173.654 28.1434 174.23 28.2756C174.976 28.455 175.576 28.6345 176.029 28.8139C176.483 28.9933 176.87 29.2671 177.191 29.6354C177.521 30.0037 177.687 30.4994 177.687 31.1226C177.687 31.642 177.545 32.1188 177.262 32.5532C176.978 32.9781 176.549 33.3181 175.973 33.573C175.397 33.8185 174.688 33.9413 173.848 33.9413ZM186.951 32.5957L186.951 33.828L179.756 33.828L179.756 23.9131L186.753 23.9131L186.753 25.1454L181.172 25.1454L181.172 28.1907L186.144 28.1907L186.144 29.3946L181.172 29.3946L181.172 32.5957L186.951 32.5957ZM196.073 28.8139L197.433 28.8139L197.433 32.6807C196.942 33.0867 196.37 33.3983 195.719 33.6155C195.067 33.8327 194.387 33.9413 193.679 33.9413C192.678 33.9413 191.776 33.7241 190.974 33.2897C190.171 32.8459 189.538 32.2416 189.076 31.4767C188.622 30.7024 188.396 29.8337 188.396 28.8705C188.396 27.9074 188.622 27.0386 189.076 26.2643C189.538 25.49 190.171 24.8857 190.974 24.4513C191.786 24.017 192.697 23.7998 193.707 23.7998C194.501 23.7998 195.218 23.932 195.86 24.1964C196.512 24.4513 197.064 24.829 197.518 25.3295L196.639 26.2077C195.846 25.4428 194.888 25.0604 193.764 25.0604C193.009 25.0604 192.329 25.2256 191.724 25.5561C191.129 25.8772 190.662 26.3304 190.322 26.9159C189.982 27.4919 189.812 28.1434 189.812 28.8705C189.812 29.5882 189.982 30.2397 190.322 30.8252C190.662 31.4012 191.129 31.8544 191.724 32.1849C192.329 32.5154 193.004 32.6807 193.75 32.6807C194.637 32.6807 195.412 32.4682 196.073 32.0433L196.073 28.8139ZM204.252 33.9413C202.93 33.9413 201.901 33.5636 201.164 32.8082C200.428 32.0527 200.059 30.9668 200.059 29.5504L200.059 23.9131L201.476 23.9131L201.476 29.4938C201.476 31.6184 202.406 32.6807 204.266 32.6807C205.173 32.6807 205.867 32.421 206.348 31.9017C206.83 31.3729 207.071 30.5702 207.071 29.4938L207.071 23.9131L208.445 23.9131L208.445 29.5504C208.445 30.9763 208.076 32.0669 207.34 32.8223C206.603 33.5683 205.574 33.9413 204.252 33.9413ZM217.977 33.828L215.838 30.7827C215.574 30.8016 215.366 30.811 215.215 30.811L212.765 30.811L212.765 33.828L211.348 33.828L211.348 23.9131L215.215 23.9131C216.499 23.9131 217.51 24.22 218.246 24.8338C218.983 25.4475 219.351 26.2927 219.351 27.3691C219.351 28.134 219.162 28.7855 218.785 29.3238C218.407 29.862 217.869 30.2539 217.17 30.4994L219.521 33.828L217.977 33.828ZM215.173 29.6071C216.07 29.6071 216.754 29.4135 217.227 29.0263C217.699 28.6392 217.935 28.0868 217.935 27.3691C217.935 26.6515 217.699 26.1038 217.227 25.7261C216.754 25.3389 216.07 25.1454 215.173 25.1454L212.765 25.1454L212.765 29.6071L215.173 29.6071ZM227.957 31.3493L222.688 31.3493L221.597 33.828L220.138 33.828L224.628 23.9131L226.03 23.9131L230.535 33.828L229.047 33.828L227.957 31.3493ZM227.461 30.2161L225.322 25.3578L223.183 30.2161L227.461 30.2161ZM243.013 32.5957L243.013 33.828L235.818 33.828L235.818 23.9131L242.815 23.9131L242.815 25.1454L237.234 25.1454L237.234 28.1907L242.206 28.1907L242.206 29.3946L237.234 29.3946L237.234 32.5957L243.013 32.5957ZM107.845 60.1079C106.379 60.1079 105.059 59.8013 103.886 59.1881C102.726 58.5615 101.813 57.695 101.146 56.5886C100.48 55.4821 100.147 54.229 100.147 52.8292C100.147 51.4295 100.48 50.1764 101.146 49.0699C101.813 47.9634 102.726 47.1036 103.886 46.4904C105.059 45.8638 106.379 45.5505 107.845 45.5505C109.125 45.5505 110.278 45.7772 111.305 46.2304C112.331 46.6837 113.184 47.3369 113.864 48.1901L111.345 50.4697C110.438 49.3765 109.338 48.8299 108.045 48.8299C107.285 48.8299 106.606 48.9966 106.006 49.3299C105.419 49.6631 104.959 50.1364 104.626 50.7496C104.306 51.3495 104.146 52.0427 104.146 52.8292C104.146 53.6158 104.306 54.3156 104.626 54.9289C104.959 55.5287 105.419 55.9953 106.006 56.3286C106.606 56.6619 107.285 56.8285 108.045 56.8285C109.338 56.8285 110.438 56.2819 111.345 55.1888L113.864 57.4684C113.184 58.3216 112.331 58.9748 111.305 59.428C110.278 59.8813 109.125 60.1079 107.845 60.1079ZM122.395 60.1079C120.916 60.1079 119.583 59.7946 118.396 59.1681C117.223 58.5415 116.296 57.675 115.617 56.5686C114.95 55.4621 114.617 54.2156 114.617 52.8292C114.617 51.4428 114.95 50.1964 115.617 49.0899C116.296 47.9834 117.223 47.1169 118.396 46.4904C119.583 45.8638 120.916 45.5505 122.395 45.5505C123.875 45.5505 125.202 45.8638 126.375 46.4904C127.561 47.1169 128.488 47.9834 129.154 49.0899C129.834 50.1964 130.174 51.4428 130.174 52.8292C130.174 54.2156 129.834 55.4621 129.154 56.5686C128.488 57.675 127.561 58.5415 126.375 59.1681C125.202 59.7946 123.875 60.1079 122.395 60.1079ZM122.395 56.8285C123.102 56.8285 123.742 56.6619 124.315 56.3286C124.888 55.9953 125.341 55.5287 125.675 54.9289C126.008 54.3156 126.175 53.6158 126.175 52.8292C126.175 52.0427 126.008 51.3495 125.675 50.7496C125.341 50.1364 124.888 49.6631 124.315 49.3299C123.742 48.9966 123.102 48.8299 122.395 48.8299C121.689 48.8299 121.049 48.9966 120.476 49.3299C119.902 49.6631 119.449 50.1364 119.116 50.7496C118.783 51.3495 118.616 52.0427 118.616 52.8292C118.616 53.6158 118.783 54.3156 119.116 54.9289C119.449 55.5287 119.902 55.9953 120.476 56.3286C121.049 56.6619 121.689 56.8285 122.395 56.8285ZM144.885 59.828L144.845 52.4093L141.246 58.4482L139.486 58.4482L135.907 52.6093L135.907 59.828L132.248 59.828L132.248 45.8305L135.507 45.8305L140.426 53.909L145.225 45.8305L148.485 45.8305L148.525 59.828L144.885 59.828ZM166.524 52.5293L170.023 52.5293L170.023 58.3282C169.223 58.9015 168.304 59.3414 167.264 59.648C166.224 59.9546 165.184 60.1079 164.144 60.1079C162.678 60.1079 161.358 59.8013 160.185 59.1881C159.012 58.5615 158.092 57.695 157.425 56.5886C156.759 55.4821 156.426 54.229 156.426 52.8292C156.426 51.4295 156.759 50.1764 157.425 49.0699C158.092 47.9634 159.019 47.1036 160.205 46.4904C161.391 45.8638 162.731 45.5505 164.224 45.5505C165.531 45.5505 166.704 45.7705 167.744 46.2104C168.783 46.6503 169.65 47.2836 170.343 48.1101L167.824 50.3897C166.877 49.3499 165.744 48.8299 164.424 48.8299C163.224 48.8299 162.258 49.1965 161.525 49.9297C160.792 50.6496 160.425 51.6161 160.425 52.8292C160.425 53.6024 160.592 54.2956 160.925 54.9089C161.258 55.5087 161.725 55.982 162.325 56.3286C162.924 56.6619 163.611 56.8285 164.384 56.8285C165.144 56.8285 165.857 56.6752 166.524 56.3686L166.524 52.5293ZM181.912 57.1085L175.993 57.1085L174.893 59.828L170.854 59.828L177.033 45.8305L180.932 45.8305L187.131 59.828L183.011 59.828L181.912 57.1085ZM180.752 54.189L178.952 49.7098L177.153 54.189L180.752 54.189ZM194.372 56.1086L192.213 56.1086L192.213 59.828L188.253 59.828L188.253 45.8305L194.652 45.8305C195.919 45.8305 197.018 46.0438 197.951 46.4704C198.885 46.8836 199.605 47.4835 200.111 48.27C200.618 49.0432 200.871 49.9564 200.871 51.0096C200.871 52.0227 200.631 52.9092 200.151 53.6691C199.684 54.4156 199.011 55.0022 198.131 55.4288L201.151 59.828L196.912 59.828L194.372 56.1086ZM196.872 51.0096C196.872 50.3563 196.665 49.8498 196.252 49.4898C195.839 49.1299 195.225 48.9499 194.412 48.9499L192.213 48.9499L192.213 53.0492L194.412 53.0492C195.225 53.0492 195.839 52.8759 196.252 52.5293C196.665 52.1693 196.872 51.6628 196.872 51.0096ZM212.434 57.1085L206.515 57.1085L205.415 59.828L201.376 59.828L207.554 45.8305L211.454 45.8305L217.653 59.828L213.533 59.828L212.434 57.1085ZM211.274 54.189L209.474 49.7098L207.674 54.189L211.274 54.189ZM232.093 45.8305L232.093 59.828L228.833 59.828L222.654 52.3693L222.654 59.828L218.775 59.828L218.775 45.8305L222.034 45.8305L228.213 53.2891L228.213 45.8305L232.093 45.8305ZM237.865 48.9699L233.566 48.9699L233.566 45.8305L246.103 45.8305L246.103 48.9699L241.824 48.9699L241.824 59.828L237.865 59.828L237.865 48.9699ZM247.579 45.8305L251.538 45.8305L251.538 59.828L247.579 59.828L247.579 45.8305ZM263.733 57.1085L257.814 57.1085L256.714 59.828L252.675 59.828L258.854 45.8305L262.753 45.8305L268.952 59.828L264.833 59.828L263.733 57.1085ZM262.573 54.189L260.773 49.7098L258.974 54.189L262.573 54.189Z" fill="white"></path></svg>