<svg xmlns="http://www.w3.org/2000/svg" width="136" height="103" viewBox="0 0 136 103" fill="none"><g clip-path="url(#clip0_2_25)"><path d="M4.92963 37.3718L10.0903 0.887756H19.1407L15.1996 28.9504H28.5505L27.331 37.3718H4.92963Z" fill="url(#paint0_linear_2_25)"></path><path d="M31.2977 37.3718L35.0976 9.98951H43.7886L39.9373 37.3718H31.2977ZM35.2902 7.53756L36.2401 0.887756H45.252L44.3406 7.53756H35.2902Z" fill="url(#paint1_linear_2_25)"></path><path d="M46.4973 37.3718L49.3087 17.4609H46.2277L47.2675 9.98953H50.3485L50.4897 9.12942C51.4782 2.89042 54.7902 0.348602 61.3502 0.348602C63.0191 0.348602 64.8805 0.579676 66.7804 0.887775L65.869 7.31934C64.6879 7.08827 63.6096 6.9984 62.6981 6.9984C60.2975 6.9984 59.1678 7.67879 58.8982 9.48887L58.8469 9.98953H65.4582L64.4183 17.4609H57.8969L55.0855 37.3718H46.4844H46.4973Z" fill="url(#paint2_linear_2_25)"></path><path d="M68.4493 29.0403L70.0412 17.4609H66.7805L67.8203 9.98954H71.1195L72.108 2.83908H80.7476L79.7591 9.98954H85.0482L84.0083 17.4609H78.7193L77.4099 26.9221C77.0504 29.2329 78.0004 30.1829 80.0287 30.1829C80.7091 30.1829 85.1123 30.093 85.8826 29.9518L84.8941 37.1921C83.1739 37.6414 77.7308 37.8725 76.1004 37.8725C70.1695 37.8725 67.5892 34.9712 68.4493 29.0532V29.0403Z" fill="url(#paint3_linear_2_25)"></path><path fill-rule="evenodd" clip-rule="evenodd" d="M31.1308 59.4009L31.272 58.4509C32.9923 46.4222 28.8714 40.7609 18.2805 40.7609H5.16066L0 77.2321H13.1712C23.7108 77.2321 29.4106 71.5708 31.1308 59.4009ZM16.3806 49.2978C21.0406 49.2978 22.8507 52.0193 22.0804 57.6293L21.721 60.2995C20.9122 65.9095 18.2934 68.6695 13.6719 68.6695H10.1416L12.9016 49.2978H16.3806ZM59.5017 63.7399C60.6314 53.7781 57.1909 49.3492 49.0006 49.3492L49.0135 49.362H48.9236C40.5536 49.362 35.2517 54.2916 34.0321 63.1623L33.9423 63.7528C32.6842 72.662 36.6638 77.7328 45.2136 77.7328H45.3034C52.7235 77.7328 57.345 74.0613 58.8341 68.2716L59.0138 67.5912H50.4127L50.2715 68.1304C49.7324 69.7607 48.2817 70.6593 46.3818 70.6593H46.2406C43.5704 70.6593 42.1197 68.8492 42.261 65.6399H59.3219L59.5017 63.7399ZM43.0697 60.5819C43.84 57.9117 45.5987 56.3712 47.9993 56.3712H48.0892C50.3485 56.3712 51.3884 57.6807 51.2087 60.5819H43.0697ZM64.4183 68.9006L65.9973 57.3212H62.7366L63.7765 49.8498H67.0757L68.0642 42.6994H76.7038L75.7153 49.8498H81.0043L79.9645 57.3212H74.6755L73.3661 66.7824C73.0066 69.0932 73.9566 70.0431 75.9977 70.0431C76.6781 70.0431 77.4484 69.9533 78.2186 69.8121L77.2301 77.0524C75.5099 77.5017 73.6998 77.7328 72.0695 77.7328C66.1386 77.7328 63.5582 74.8315 64.4183 68.9135V68.9006ZM82.0185 63.6501C80.7476 72.6491 84.7272 77.7199 93.0587 77.7199H93.1485C101.519 77.7199 106.949 72.662 108.22 63.6501L108.31 63.1494C109.529 54.3301 105.511 49.3492 97.1795 49.3492H97.0896C88.7581 49.3492 83.3279 54.3301 82.1083 63.1494L82.0185 63.6501ZM99.272 64.0224C98.7328 67.8608 96.8714 69.9918 94.2911 69.9918H94.2141C91.6337 69.9918 90.4142 67.8736 90.9533 64.0224L91.0946 62.8413C91.5952 59.1698 93.4053 57.0901 96.0241 57.0901H96.114C98.6943 57.0901 99.9139 59.1698 99.4132 62.8413L99.272 64.0224ZM106.23 77.2321L115.319 63.5217L110.068 49.8498H118.99L121.609 58.8489H121.969L127.129 49.8498H136L127.271 63.5217L132.2 77.2321H123.278L120.659 68.2202H120.3L115.139 77.2321H106.23ZM6.94506 83.6123H87.3717H87.3846C89.6311 83.6123 91.1331 85.4994 90.7608 87.823L89.0149 98.5808C88.6298 100.93 86.4988 102.83 84.2394 102.83H3.36342C1.10402 102.83 -0.359446 100.917 0.0770272 98.5808L2.09251 87.823C2.52898 85.4994 4.69851 83.6123 6.94506 83.6123Z" fill="url(#paint4_linear_2_25)"></path><path d="M23.929 93.0864C24.558 92.8938 25.0715 92.56 25.4567 92.085C25.8418 91.5972 26.0343 90.9939 26.0343 90.2621C26.0343 89.2736 25.6749 88.4906 24.9688 87.9129C24.2628 87.3352 23.2743 87.0528 22.0162 87.0528H16.4448V99.4409H22.2088C23.5054 99.4409 24.5067 99.1328 25.2384 98.5295C25.9573 97.9261 26.3296 97.1045 26.3296 96.0647C26.3296 95.3458 26.1114 94.7039 25.6749 94.1519C25.2384 93.587 24.6607 93.2404 23.9418 93.0864H23.929ZM19.4487 89.4662H21.4257C21.9135 89.4662 22.2986 89.5817 22.5682 89.8C22.8378 90.0182 22.9662 90.352 22.9662 90.7756C22.9662 91.1993 22.8378 91.5202 22.5682 91.7384C22.2986 91.9567 21.9264 92.0594 21.4257 92.0594H19.4487V89.4662ZM22.8378 96.668C22.5554 96.8991 22.1703 97.0146 21.6696 97.0146H19.4487V94.2802H21.6311C22.1318 94.2802 22.5297 94.4086 22.825 94.6525C23.1074 94.8964 23.2615 95.2431 23.2615 95.6795C23.2615 96.116 23.1202 96.4498 22.8507 96.6809L22.8378 96.668ZM31.7727 87.0528H28.7559V99.4409H35.7266V97.1173H31.7727V87.0528ZM41.542 87.0528L37.0617 99.4409H40.2197L40.9643 97.2585H45.5858L46.3304 99.4409H49.5269L45.0466 87.0528H41.5548H41.542ZM41.7602 94.9221L43.275 90.3905L44.8155 94.9221H41.7602ZM57.2679 89.6716C57.8456 89.6716 58.3591 89.8128 58.8084 90.0824C59.2577 90.352 59.6171 90.75 59.861 91.2634H63.1731C62.8265 89.9284 62.1204 88.8628 61.0678 88.0926C60.0151 87.3223 58.757 86.9244 57.2935 86.9244C56.0997 86.9244 55.0213 87.194 54.0713 87.7331C53.1214 88.2723 52.3896 89.0169 51.8633 89.9797C51.337 90.9425 51.0674 92.0337 51.0674 93.2533C51.0674 94.4728 51.337 95.564 51.8633 96.514C52.3896 97.4639 53.1342 98.2085 54.0713 98.7477C55.0213 99.2869 56.0868 99.5564 57.2935 99.5564C58.7699 99.5564 60.0279 99.1713 61.0678 98.4011C62.1204 97.6308 62.8136 96.5782 63.1731 95.2302H59.861C59.6171 95.7437 59.2577 96.1417 58.8084 96.4113C58.3591 96.6809 57.8456 96.8221 57.2679 96.8221C56.3436 96.8221 55.5862 96.5011 55.0085 95.8464C54.4308 95.2045 54.1484 94.3316 54.1484 93.2533C54.1484 92.1749 54.4308 91.302 55.0085 90.6601C55.5862 90.0182 56.3436 89.6844 57.2679 89.6844V89.6716ZM71.6201 93.1249L76.4214 87.0528H72.8782L68.7446 92.483V87.0528H65.7278V99.4409H68.7446V93.9722L72.9039 99.4409H76.5882L71.6073 93.1249H71.6201Z" fill="black"></path></g><defs><linearGradient id="paint0_linear_2_25" x1="16.7401" y1="0.887756" x2="16.7401" y2="37.3718" gradientUnits="userSpaceOnUse"><stop stop-color="#999999"></stop><stop offset="0.475" stop-color="white"></stop><stop offset="1" stop-color="#999999"></stop></linearGradient><linearGradient id="paint1_linear_2_25" x1="38.2749" y1="0.887756" x2="38.2749" y2="37.3718" gradientUnits="userSpaceOnUse"><stop stop-color="#999999"></stop><stop offset="0.475" stop-color="white"></stop><stop offset="1" stop-color="#999999"></stop></linearGradient><linearGradient id="paint2_linear_2_25" x1="56.504" y1="0.348602" x2="56.504" y2="37.3718" gradientUnits="userSpaceOnUse"><stop stop-color="#999999"></stop><stop offset="0.475" stop-color="white"></stop><stop offset="1" stop-color="#999999"></stop></linearGradient><linearGradient id="paint3_linear_2_25" x1="76.3315" y1="2.83908" x2="76.3315" y2="37.8725" gradientUnits="userSpaceOnUse"><stop stop-color="#999999"></stop><stop offset="0.475" stop-color="white"></stop><stop offset="1" stop-color="#999999"></stop></linearGradient><linearGradient id="paint4_linear_2_25" x1="131.5" y1="72" x2="-10" y2="72" gradientUnits="userSpaceOnUse"><stop stop-color="#0EA900"></stop><stop offset="1" stop-color="#CCFF00"></stop></linearGradient><clipPath id="clip0_2_25"><rect width="136" height="102.481" fill="white" transform="translate(0 0.348602)"></rect></clipPath></defs></svg>