<svg xmlns="http://www.w3.org/2000/svg" width="243" height="83" viewBox="0 0 243 83" fill="none"><circle cx="67.3782" cy="57.2266" r="16.2471" fill="#00B807"></circle><circle cx="50.7145" cy="41.3961" r="31.2444" stroke="white" stroke-width="1.66637"></circle><path d="M30.751 51.8795C30.751 53.177 31.2664 54.4213 32.1839 55.3388C33.1013 56.2563 34.3457 56.7717 35.6432 56.7717L64.9965 56.7717C66.294 56.7717 67.5383 56.2563 68.4558 55.3388C69.3733 54.4213 69.8887 53.177 69.8887 51.8795L69.8887 38.4259L30.751 38.4259L30.751 51.8795ZM36.5168 45.24C36.5168 44.545 36.7929 43.8783 37.2844 43.3868C37.7759 42.8953 38.4425 42.6192 39.1376 42.6192L43.331 42.6192C44.026 42.6192 44.6927 42.8953 45.1842 43.3868C45.6757 43.8783 45.9518 44.545 45.9518 45.24L45.9518 46.9873C45.9518 47.6823 45.6757 48.349 45.1842 48.8405C44.6927 49.332 44.026 49.6081 43.331 49.6081L39.1376 49.6081C38.4425 49.6081 37.7759 49.332 37.2844 48.8405C36.7929 48.349 36.5168 47.6823 36.5168 46.9873L36.5168 45.24ZM64.9965 26.0206L35.6432 26.0206C34.3457 26.0206 33.1013 26.5361 32.1839 27.4535C31.2664 28.371 30.751 29.6153 30.751 30.9128L30.751 33.1842L69.8887 33.1842L69.8887 30.9128C69.8887 29.6153 69.3733 28.371 68.4558 27.4535C67.5383 26.5361 66.294 26.0206 64.9965 26.0206Z" fill="white"></path><path d="M104.821 22.9812C106.105 22.9812 107.115 23.2881 107.852 23.9019C108.588 24.5156 108.957 25.3608 108.957 26.4372C108.957 27.5137 108.588 28.3588 107.852 28.9726C107.115 29.5864 106.105 29.8933 104.821 29.8933L102.37 29.8933L102.37 32.8961L100.954 32.8961L100.954 22.9812L104.821 22.9812ZM104.778 28.661C105.675 28.661 106.36 28.4722 106.832 28.0944C107.304 27.7073 107.54 27.1549 107.54 26.4372C107.54 25.7196 107.304 25.1719 106.832 24.7942C106.36 24.4071 105.675 24.2135 104.778 24.2135L102.37 24.2135L102.37 28.661L104.778 28.661ZM116.857 30.4174L111.588 30.4174L110.497 32.8961L109.038 32.8961L113.528 22.9812L114.931 22.9812L119.435 32.8961L117.948 32.8961L116.857 30.4174ZM116.361 29.2842L114.222 24.4259L112.084 29.2842L116.361 29.2842ZM127.543 32.8961L125.404 29.8508C125.139 29.8697 124.932 29.8791 124.781 29.8791L122.33 29.8791L122.33 32.8961L120.914 32.8961L120.914 22.9812L124.781 22.9812C126.065 22.9812 127.075 23.2881 127.812 23.9019C128.548 24.5156 128.917 25.3608 128.917 26.4372C128.917 27.2021 128.728 27.8537 128.35 28.3919C127.972 28.9301 127.434 29.322 126.735 29.5675L129.087 32.8961L127.543 32.8961ZM124.738 28.6752C125.635 28.6752 126.32 28.4816 126.792 28.0944C127.264 27.7073 127.5 27.1549 127.5 26.4372C127.5 25.7196 127.264 25.1719 126.792 24.7942C126.32 24.4071 125.635 24.2135 124.738 24.2135L122.33 24.2135L122.33 28.6752L124.738 28.6752ZM135.638 33.0094C134.647 33.0094 133.75 32.7922 132.947 32.3579C132.154 31.914 131.531 31.3097 131.077 30.5448C130.624 29.7705 130.398 28.9018 130.398 27.9386C130.398 26.9755 130.624 26.1115 131.077 25.3466C131.531 24.5723 132.159 23.968 132.961 23.5336C133.764 23.0898 134.661 22.8679 135.652 22.8679C136.427 22.8679 137.135 23.0001 137.777 23.2645C138.419 23.5194 138.967 23.9019 139.42 24.4118L138.499 25.3041C137.753 24.5204 136.823 24.1285 135.709 24.1285C134.973 24.1285 134.307 24.2937 133.712 24.6242C133.117 24.9547 132.65 25.4127 132.31 25.9982C131.979 26.5742 131.814 27.221 131.814 27.9386C131.814 28.6563 131.979 29.3078 132.31 29.8933C132.65 30.4693 133.117 30.9226 133.712 31.253C134.307 31.5835 134.973 31.7488 135.709 31.7488C136.814 31.7488 137.744 31.3522 138.499 30.559L139.42 31.4513C138.967 31.9613 138.414 32.3484 137.763 32.6128C137.121 32.8772 136.413 33.0094 135.638 33.0094ZM148.636 31.6638L148.636 32.8961L141.441 32.8961L141.441 22.9812L148.438 22.9812L148.438 24.2135L142.857 24.2135L142.857 27.2588L147.829 27.2588L147.829 28.4627L142.857 28.4627L142.857 31.6638L148.636 31.6638ZM150.93 22.9812L152.346 22.9812L152.346 31.6638L157.714 31.6638L157.714 32.8961L150.93 32.8961L150.93 22.9812ZM165.698 30.4174L160.429 30.4174L159.339 32.8961L157.88 32.8961L162.37 22.9812L163.772 22.9812L168.276 32.8961L166.789 32.8961L165.698 30.4174ZM165.202 29.2842L163.064 24.4259L160.925 29.2842L165.202 29.2842ZM178.948 32.8961L178.934 25.6724L175.35 31.6921L174.698 31.6921L171.115 25.7149L171.115 32.8961L169.755 32.8961L169.755 22.9812L170.917 22.9812L175.053 29.9499L179.132 22.9812L180.293 22.9812L180.307 32.8961L178.948 32.8961ZM190.478 31.6638L190.478 32.8961L183.283 32.8961L183.283 22.9812L190.28 22.9812L190.28 24.2135L184.699 24.2135L184.699 27.2588L189.671 27.2588L189.671 28.4627L184.699 28.4627L184.699 31.6638L190.478 31.6638ZM201.299 22.9812L201.299 32.8961L200.137 32.8961L194.188 25.5024L194.188 32.8961L192.772 32.8961L192.772 22.9812L193.933 22.9812L199.882 30.3749L199.882 22.9812L201.299 22.9812ZM206.235 24.2135L202.836 24.2135L202.836 22.9812L211.037 22.9812L211.037 24.2135L207.637 24.2135L207.637 32.8961L206.235 32.8961L206.235 24.2135ZM216.917 33.0094C215.916 33.0094 215.014 32.7922 214.212 32.3579C213.409 31.914 212.776 31.305 212.314 30.5307C211.86 29.7564 211.634 28.8924 211.634 27.9386C211.634 26.9849 211.86 26.1209 212.314 25.3466C212.776 24.5723 213.409 23.968 214.212 23.5336C215.014 23.0898 215.916 22.8679 216.917 22.8679C217.909 22.8679 218.806 23.0898 219.608 23.5336C220.411 23.968 221.039 24.5723 221.492 25.3466C221.945 26.1115 222.172 26.9755 222.172 27.9386C222.172 28.9018 221.945 29.7705 221.492 30.5448C221.039 31.3097 220.411 31.914 219.608 32.3579C218.806 32.7922 217.909 33.0094 216.917 33.0094ZM216.917 31.7488C217.644 31.7488 218.296 31.5835 218.872 31.253C219.457 30.9226 219.915 30.4693 220.246 29.8933C220.586 29.3078 220.756 28.6563 220.756 27.9386C220.756 27.221 220.586 26.5742 220.246 25.9982C219.915 25.4127 219.457 24.9547 218.872 24.6242C218.296 24.2937 217.644 24.1285 216.917 24.1285C216.19 24.1285 215.529 24.2937 214.934 24.6242C214.349 24.9547 213.886 25.4127 213.546 25.9982C213.215 26.5742 213.05 27.221 213.05 27.9386C213.05 28.6563 213.215 29.3078 213.546 29.8933C213.886 30.4693 214.349 30.9226 214.934 31.253C215.529 31.5835 216.19 31.7488 216.917 31.7488ZM112.105 55.8366L112.105 58.8961L100.867 58.8961L100.867 44.8986L111.845 44.8986L111.845 47.958L104.786 47.958L104.786 50.3176L111.005 50.3176L111.005 53.2771L104.786 53.2771L104.786 55.8366L112.105 55.8366ZM126.939 58.8961L126.899 51.4774L123.3 57.5163L121.54 57.5163L117.961 51.6774L117.961 58.8961L114.302 58.8961L114.302 44.8986L117.561 44.8986L122.48 52.9771L127.279 44.8986L130.539 44.8986L130.579 58.8961L126.939 58.8961ZM148.578 56.1766L142.659 56.1766L141.559 58.8961L137.52 58.8961L143.699 44.8986L147.598 44.8986L153.797 58.8961L149.678 58.8961L148.578 56.1766ZM147.418 53.2571L145.618 48.7779L143.819 53.2571L147.418 53.2571ZM157.196 48.038L152.897 48.038L152.897 44.8986L165.434 44.8986L165.434 48.038L161.155 48.038L161.155 58.8961L157.196 58.8961L157.196 48.038ZM178.147 55.8366L178.147 58.8961L166.909 58.8961L166.909 44.8986L177.887 44.8986L177.887 47.958L170.829 47.958L170.829 50.3176L177.048 50.3176L177.048 53.2771L170.829 53.2771L170.829 55.8366L178.147 55.8366ZM173.128 40.7193L176.928 40.7193L173.168 43.7588L170.449 43.7588L173.128 40.7193ZM191.443 44.8986L191.443 58.8961L187.484 58.8961L187.484 47.958L184.884 47.958L184.884 44.8986L191.443 44.8986ZM204.366 55.7567L204.366 58.8961L193.468 58.8961L193.468 56.4165L198.707 51.5174C199.214 51.0375 199.553 50.6309 199.727 50.2976C199.9 49.951 199.987 49.6044 199.987 49.2578C199.987 48.8046 199.833 48.4513 199.527 48.198C199.22 47.9447 198.774 47.8181 198.187 47.8181C197.667 47.8181 197.187 47.9381 196.747 48.178C196.321 48.4046 195.967 48.7379 195.687 49.1778L192.748 47.5381C193.295 46.6316 194.061 45.9184 195.048 45.3985C196.034 44.8786 197.201 44.6186 198.547 44.6186C199.613 44.6186 200.553 44.792 201.366 45.1386C202.193 45.4852 202.833 45.9851 203.286 46.6383C203.753 47.2782 203.986 48.0247 203.986 48.8779C203.986 49.6377 203.819 50.3576 203.486 51.0375C203.166 51.704 202.54 52.4639 201.606 53.3171L198.967 55.7567L204.366 55.7567ZM215.077 58.8961L212.177 54.5569L209.318 58.8961L204.799 58.8961L209.898 51.8174L205.018 44.8986L209.478 44.8986L212.277 48.9379L215.037 44.8986L219.316 44.8986L214.437 51.6574L219.636 58.8961L215.077 58.8961Z" fill="white"></path></svg>