<svg xmlns="http://www.w3.org/2000/svg" width="296" height="83" viewBox="0 0 296 83" fill="none"><circle cx="67.3782" cy="57.2266" r="16.2471" fill="#00B807"></circle><circle cx="50.7145" cy="41.3961" r="31.2444" stroke="white" stroke-width="1.66637"></circle><path d="M55.7994 49.0243L51.0048 44.2548C50.8296 44.0805 50.6225 44.0488 50.511 44.0488C50.3995 44.0488 50.1924 44.0805 50.0172 44.2548L45.2066 49.0402C44.665 49.5789 43.8208 50.4504 41.0013 50.4504L46.911 56.3133C47.807 57.2035 49.0216 57.7035 50.288 57.7035C51.5544 57.7035 52.7689 57.2035 53.6649 56.3133L59.5906 50.4346C58.141 50.4346 56.9304 50.1494 55.7994 49.0243ZM45.2066 34.684L50.0172 39.4694C50.1446 39.5962 50.3358 39.6754 50.511 39.6754C50.6862 39.6754 50.8774 39.5962 51.0048 39.4694L55.7676 34.7315C56.8985 33.559 58.1888 33.2896 59.6383 33.2896L53.7127 27.4109C52.8167 26.5207 51.6021 26.0206 50.3358 26.0206C49.0694 26.0206 47.8548 26.5207 46.9588 27.4109L41.0491 33.2737C43.8526 33.2737 44.7128 34.1928 45.2066 34.684Z" fill="white"></path><path d="M64.7436 38.7039L61.1797 35.3687L59.1839 35.3687C58.3286 35.3687 57.4733 35.6933 56.8872 36.2689L52.1353 40.6962C51.6918 41.1094 51.1058 41.3161 50.5197 41.3161C49.9162 41.3081 49.3386 41.0865 48.9041 40.6962L44.1205 36.2246C43.5186 35.6638 42.6949 35.3391 41.8238 35.3391L39.4954 35.3391L35.8681 38.7334C34.9782 39.5636 34.4784 40.6888 34.4784 41.8621C34.4784 43.0353 34.9782 44.1606 35.8681 44.9907L39.4954 48.385L41.8396 48.385C42.6949 48.385 43.5186 48.0604 44.1363 47.4996L48.9199 43.0427C49.3634 42.6295 49.9495 42.4229 50.5355 42.4229C51.1216 42.4229 51.7077 42.6295 52.1512 43.0427L56.9189 47.4848C57.5208 48.0456 58.3444 48.3703 59.2156 48.3703L61.2114 48.3703L64.7753 45.035C65.6689 44.19 66.1672 43.0497 66.1613 41.8634C66.1553 40.6771 65.6456 39.5412 64.7436 38.7039Z" fill="white"></path><path d="M104.821 22.9812C106.105 22.9812 107.115 23.2881 107.852 23.9019C108.588 24.5156 108.957 25.3608 108.957 26.4372C108.957 27.5137 108.588 28.3588 107.852 28.9726C107.115 29.5864 106.105 29.8933 104.821 29.8933L102.37 29.8933L102.37 32.8961L100.954 32.8961L100.954 22.9812L104.821 22.9812ZM104.778 28.661C105.675 28.661 106.36 28.4722 106.832 28.0944C107.304 27.7073 107.54 27.1549 107.54 26.4372C107.54 25.7196 107.304 25.1719 106.832 24.7942C106.36 24.4071 105.675 24.2135 104.778 24.2135L102.37 24.2135L102.37 28.661L104.778 28.661ZM116.857 30.4174L111.588 30.4174L110.497 32.8961L109.038 32.8961L113.528 22.9812L114.931 22.9812L119.435 32.8961L117.948 32.8961L116.857 30.4174ZM116.361 29.2842L114.222 24.4259L112.084 29.2842L116.361 29.2842ZM127.645 27.882L129.005 27.882L129.005 31.7488C128.514 32.1548 127.943 32.4664 127.291 32.6836C126.639 32.9008 125.96 33.0094 125.251 33.0094C124.25 33.0094 123.349 32.7922 122.546 32.3579C121.743 31.914 121.111 31.3097 120.648 30.5448C120.195 29.7705 119.968 28.9018 119.968 27.9386C119.968 26.9755 120.195 26.1068 120.648 25.3324C121.111 24.5581 121.743 23.9538 122.546 23.5194C123.358 23.0851 124.269 22.8679 125.28 22.8679C126.073 22.8679 126.791 23.0001 127.433 23.2645C128.084 23.5194 128.637 23.8971 129.09 24.3976L128.212 25.2758C127.418 24.5109 126.46 24.1285 125.336 24.1285C124.581 24.1285 123.901 24.2937 123.297 24.6242C122.702 24.9453 122.234 25.3985 121.894 25.984C121.555 26.56 121.385 27.2116 121.385 27.9386C121.385 28.6563 121.555 29.3078 121.894 29.8933C122.234 30.4693 122.702 30.9226 123.297 31.253C123.901 31.5835 124.576 31.7488 125.322 31.7488C126.21 31.7488 126.984 31.5363 127.645 31.1114L127.645 27.882ZM138.034 30.4174L132.765 30.4174L131.674 32.8961L130.215 32.8961L134.705 22.9812L136.108 22.9812L140.612 32.8961L139.125 32.8961L138.034 30.4174ZM137.538 29.2842L135.399 24.4259L133.261 29.2842L137.538 29.2842ZM151.283 32.8961L151.269 25.6724L147.686 31.6921L147.034 31.6921L143.451 25.7149L143.451 32.8961L142.091 32.8961L142.091 22.9812L143.252 22.9812L147.388 29.9499L151.468 22.9812L152.629 22.9812L152.643 32.8961L151.283 32.8961ZM162.814 31.6638L162.814 32.8961L155.619 32.8961L155.619 22.9812L162.616 22.9812L162.616 24.2135L157.035 24.2135L157.035 27.2588L162.007 27.2588L162.007 28.4627L157.035 28.4627L157.035 31.6638L162.814 31.6638ZM173.634 22.9812L173.634 32.8961L172.473 32.8961L166.524 25.5024L166.524 32.8961L165.108 32.8961L165.108 22.9812L166.269 22.9812L172.218 30.3749L172.218 22.9812L173.634 22.9812ZM178.571 24.2135L175.171 24.2135L175.171 22.9812L183.373 22.9812L183.373 24.2135L179.973 24.2135L179.973 32.8961L178.571 32.8961L178.571 24.2135ZM189.253 33.0094C188.252 33.0094 187.35 32.7922 186.547 32.3579C185.745 31.914 185.112 31.305 184.649 30.5307C184.196 29.7564 183.97 28.8924 183.97 27.9386C183.97 26.9849 184.196 26.1209 184.649 25.3466C185.112 24.5723 185.745 23.968 186.547 23.5336C187.35 23.0898 188.252 22.8679 189.253 22.8679C190.244 22.8679 191.141 23.0898 191.944 23.5336C192.747 23.968 193.374 24.5723 193.828 25.3466C194.281 26.1115 194.508 26.9755 194.508 27.9386C194.508 28.9018 194.281 29.7705 193.828 30.5448C193.374 31.3097 192.747 31.914 191.944 32.3579C191.141 32.7922 190.244 33.0094 189.253 33.0094ZM189.253 31.7488C189.98 31.7488 190.631 31.5835 191.207 31.253C191.793 30.9226 192.251 30.4693 192.581 29.8933C192.921 29.3078 193.091 28.6563 193.091 27.9386C193.091 27.221 192.921 26.5742 192.581 25.9982C192.251 25.4127 191.793 24.9547 191.207 24.6242C190.631 24.2937 189.98 24.1285 189.253 24.1285C188.526 24.1285 187.865 24.2937 187.27 24.6242C186.684 24.9547 186.222 25.4127 185.882 25.9982C185.551 26.5742 185.386 27.221 185.386 27.9386C185.386 28.6563 185.551 29.3078 185.882 29.8933C186.222 30.4693 186.684 30.9226 187.27 31.253C187.865 31.5835 188.526 31.7488 189.253 31.7488ZM207.672 31.6638L207.672 32.8961L200.476 32.8961L200.476 22.9812L207.473 22.9812L207.473 24.2135L201.893 24.2135L201.893 27.2588L206.864 27.2588L206.864 28.4627L201.893 28.4627L201.893 31.6638L207.672 31.6638ZM219.158 32.8961L219.144 25.6724L215.56 31.6921L214.909 31.6921L211.325 25.7149L211.325 32.8961L209.965 32.8961L209.965 22.9812L211.127 22.9812L215.263 29.9499L219.342 22.9812L220.503 22.9812L220.518 32.8961L219.158 32.8961ZM231.164 22.9812C232.448 22.9812 233.458 23.2881 234.195 23.9019C234.931 24.5156 235.3 25.3608 235.3 26.4372C235.3 27.5137 234.931 28.3588 234.195 28.9726C233.458 29.5864 232.448 29.8933 231.164 29.8933L228.713 29.8933L228.713 32.8961L227.297 32.8961L227.297 22.9812L231.164 22.9812ZM231.121 28.661C232.018 28.661 232.703 28.4722 233.175 28.0944C233.647 27.7073 233.883 27.1549 233.883 26.4372C233.883 25.7196 233.647 25.1719 233.175 24.7942C232.703 24.4071 232.018 24.2135 231.121 24.2135L228.713 24.2135L228.713 28.661L231.121 28.661ZM237.381 22.9812L238.797 22.9812L238.797 32.8961L237.381 32.8961L237.381 22.9812ZM247.998 32.8961L245.023 28.8027L242.091 32.8961L240.462 32.8961L244.187 27.8112L240.689 22.9812L242.304 22.9812L245.08 26.7913L247.828 22.9812L249.371 22.9812L245.873 27.7687L249.626 32.8961L247.998 32.8961ZM107.845 59.176C106.379 59.176 105.059 58.8694 103.886 58.2562C102.726 57.6296 101.813 56.7631 101.146 55.6567C100.48 54.5502 100.147 53.2971 100.147 51.8973C100.147 50.4976 100.48 49.2445 101.146 48.138C101.813 47.0315 102.726 46.1717 103.886 45.5585C105.059 44.9319 106.379 44.6186 107.845 44.6186C109.125 44.6186 110.278 44.8453 111.305 45.2985C112.331 45.7518 113.184 46.405 113.864 47.2582L111.345 49.5378C110.438 48.4446 109.338 47.8981 108.045 47.8981C107.285 47.8981 106.606 48.0647 106.006 48.398C105.419 48.7312 104.959 49.2045 104.626 49.8177C104.306 50.4176 104.146 51.1108 104.146 51.8973C104.146 52.6839 104.306 53.3837 104.626 53.997C104.959 54.5969 105.419 55.0634 106.006 55.3967C106.606 55.73 107.285 55.8966 108.045 55.8966C109.338 55.8966 110.438 55.3501 111.345 54.2569L113.864 56.5365C113.184 57.3897 112.331 58.0429 111.305 58.4962C110.278 58.9494 109.125 59.176 107.845 59.176ZM122.395 59.176C120.916 59.176 119.583 58.8628 118.396 58.2362C117.223 57.6097 116.296 56.7431 115.617 55.6367C114.95 54.5302 114.617 53.2838 114.617 51.8973C114.617 50.5109 114.95 49.2645 115.617 48.158C116.296 47.0515 117.223 46.185 118.396 45.5585C119.583 44.9319 120.916 44.6186 122.395 44.6186C123.875 44.6186 125.202 44.9319 126.375 45.5585C127.561 46.185 128.488 47.0515 129.154 48.158C129.834 49.2645 130.174 50.5109 130.174 51.8973C130.174 53.2838 129.834 54.5302 129.154 55.6367C128.488 56.7431 127.561 57.6097 126.375 58.2362C125.202 58.8628 123.875 59.176 122.395 59.176ZM122.395 55.8966C123.102 55.8966 123.742 55.73 124.315 55.3967C124.888 55.0634 125.341 54.5969 125.675 53.997C126.008 53.3837 126.175 52.6839 126.175 51.8973C126.175 51.1108 126.008 50.4176 125.675 49.8177C125.341 49.2045 124.888 48.7312 124.315 48.398C123.742 48.0647 123.102 47.8981 122.395 47.8981C121.689 47.8981 121.049 48.0647 120.476 48.398C119.902 48.7312 119.449 49.2045 119.116 49.8177C118.783 50.4176 118.616 51.1108 118.616 51.8973C118.616 52.6839 118.783 53.3837 119.116 53.997C119.449 54.5969 119.902 55.0634 120.476 55.3967C121.049 55.73 121.689 55.8966 122.395 55.8966ZM144.885 58.8961L144.845 51.4774L141.246 57.5163L139.486 57.5163L135.907 51.6774L135.907 58.8961L132.248 58.8961L132.248 44.8986L135.507 44.8986L140.426 52.9771L145.225 44.8986L148.485 44.8986L148.525 58.8961L144.885 58.8961ZM157.146 44.8986L163.764 44.8986C165.297 44.8986 166.657 45.1852 167.844 45.7584C169.03 46.3317 169.95 47.1449 170.603 48.198C171.256 49.2512 171.583 50.4843 171.583 51.8973C171.583 53.3104 171.256 54.5435 170.603 55.5967C169.95 56.6498 169.03 57.463 167.844 58.0362C166.657 58.6095 165.297 58.8961 163.764 58.8961L157.146 58.8961L157.146 44.8986ZM163.604 55.7367C164.804 55.7367 165.764 55.3967 166.484 54.7168C167.217 54.037 167.584 53.0971 167.584 51.8973C167.584 50.6976 167.217 49.7577 166.484 49.0778C165.764 48.398 164.804 48.058 163.604 48.058L161.105 48.058L161.105 55.7367L163.604 55.7367ZM184.904 55.8366L184.904 58.8961L173.666 58.8961L173.666 44.8986L184.644 44.8986L184.644 47.958L177.585 47.958L177.585 50.3176L183.804 50.3176L183.804 53.2771L177.585 53.2771L177.585 55.8366L184.904 55.8366ZM192.02 59.176C190.887 59.176 189.787 59.0361 188.721 58.7561C187.654 58.4762 186.788 58.1029 186.121 57.6363L187.421 54.7168C188.048 55.1301 188.774 55.4634 189.601 55.7167C190.427 55.9699 191.24 56.0966 192.04 56.0966C193.56 56.0966 194.32 55.7167 194.32 54.9568C194.32 54.5569 194.1 54.2636 193.66 54.077C193.233 53.877 192.54 53.6704 191.58 53.4571C190.527 53.2304 189.647 52.9905 188.941 52.7372C188.234 52.4706 187.628 52.0506 187.121 51.4774C186.614 50.9042 186.361 50.131 186.361 49.1578C186.361 48.3047 186.594 47.5381 187.061 46.8582C187.528 46.165 188.221 45.6185 189.141 45.2185C190.074 44.8186 191.214 44.6186 192.56 44.6186C193.48 44.6186 194.386 44.7253 195.28 44.9386C196.173 45.1386 196.959 45.4385 197.639 45.8384L196.419 48.7779C195.086 48.058 193.793 47.6981 192.54 47.6981C191.754 47.6981 191.18 47.8181 190.82 48.058C190.46 48.2847 190.281 48.5846 190.281 48.9579C190.281 49.3311 190.494 49.6111 190.92 49.7977C191.347 49.9844 192.034 50.1777 192.98 50.3776C194.046 50.6042 194.926 50.8509 195.62 51.1175C196.326 51.3708 196.933 51.784 197.439 52.3573C197.959 52.9172 198.219 53.6837 198.219 54.6568C198.219 55.4967 197.986 56.2566 197.519 56.9364C197.053 57.6163 196.353 58.1629 195.42 58.5761C194.486 58.9761 193.353 59.176 192.02 59.176ZM207.027 59.176C205.56 59.176 204.241 58.8694 203.067 58.2562C201.908 57.6296 200.994 56.7631 200.328 55.6567C199.661 54.5502 199.328 53.2971 199.328 51.8973C199.328 50.4976 199.661 49.2445 200.328 48.138C200.994 47.0315 201.908 46.1717 203.067 45.5585C204.241 44.9319 205.56 44.6186 207.027 44.6186C208.306 44.6186 209.46 44.8453 210.486 45.2985C211.513 45.7518 212.366 46.405 213.046 47.2582L210.526 49.5378C209.62 48.4446 208.52 47.8981 207.227 47.8981C206.467 47.8981 205.787 48.0647 205.187 48.398C204.6 48.7312 204.141 49.2045 203.807 49.8177C203.487 50.4176 203.327 51.1108 203.327 51.8973C203.327 52.6839 203.487 53.3837 203.807 53.997C204.141 54.5969 204.6 55.0634 205.187 55.3967C205.787 55.73 206.467 55.8966 207.227 55.8966C208.52 55.8966 209.62 55.3501 210.526 54.2569L213.046 56.5365C212.366 57.3897 211.513 58.0429 210.486 58.4962C209.46 58.9494 208.306 59.176 207.027 59.176ZM221.577 59.176C220.097 59.176 218.764 58.8628 217.577 58.2362C216.404 57.6097 215.478 56.7431 214.798 55.6367C214.131 54.5302 213.798 53.2838 213.798 51.8973C213.798 50.5109 214.131 49.2645 214.798 48.158C215.478 47.0515 216.404 46.185 217.577 45.5585C218.764 44.9319 220.097 44.6186 221.577 44.6186C223.056 44.6186 224.383 44.9319 225.556 45.5585C226.743 46.185 227.669 47.0515 228.336 48.158C229.015 49.2645 229.355 50.5109 229.355 51.8973C229.355 53.2838 229.015 54.5302 228.336 55.6367C227.669 56.7431 226.743 57.6097 225.556 58.2362C224.383 58.8628 223.056 59.176 221.577 59.176ZM221.577 55.8966C222.283 55.8966 222.923 55.73 223.496 55.3967C224.07 55.0634 224.523 54.5969 224.856 53.997C225.189 53.3837 225.356 52.6839 225.356 51.8973C225.356 51.1108 225.189 50.4176 224.856 49.8177C224.523 49.2045 224.07 48.7312 223.496 48.398C222.923 48.0647 222.283 47.8981 221.577 47.8981C220.87 47.8981 220.23 48.0647 219.657 48.398C219.084 48.7312 218.631 49.2045 218.297 49.8177C217.964 50.4176 217.797 51.1108 217.797 51.8973C217.797 52.6839 217.964 53.3837 218.297 53.997C218.631 54.5969 219.084 55.0634 219.657 55.3967C220.23 55.73 220.87 55.8966 221.577 55.8966ZM244.747 44.8986L244.747 58.8961L241.487 58.8961L235.308 51.4374L235.308 58.8961L231.429 58.8961L231.429 44.8986L234.688 44.8986L240.867 52.3573L240.867 44.8986L244.747 44.8986ZM250.519 48.038L246.22 48.038L246.22 44.8986L258.757 44.8986L258.757 48.038L254.478 48.038L254.478 58.8961L250.519 58.8961L250.519 48.038ZM267.096 59.176C265.616 59.176 264.283 58.8628 263.097 58.2362C261.924 57.6097 260.997 56.7431 260.317 55.6367C259.651 54.5302 259.317 53.2838 259.317 51.8973C259.317 50.5109 259.651 49.2645 260.317 48.158C260.997 47.0515 261.924 46.185 263.097 45.5585C264.283 44.9319 265.616 44.6186 267.096 44.6186C268.576 44.6186 269.902 44.9319 271.075 45.5585C272.262 46.185 273.188 47.0515 273.855 48.158C274.535 49.2645 274.875 50.5109 274.875 51.8973C274.875 53.2838 274.535 54.5302 273.855 55.6367C273.188 56.7431 272.262 57.6097 271.075 58.2362C269.902 58.8628 268.576 59.176 267.096 59.176ZM267.096 55.8966C267.802 55.8966 268.442 55.73 269.016 55.3967C269.589 55.0634 270.042 54.5969 270.375 53.997C270.709 53.3837 270.875 52.6839 270.875 51.8973C270.875 51.1108 270.709 50.4176 270.375 49.8177C270.042 49.2045 269.589 48.7312 269.016 48.398C268.442 48.0647 267.802 47.8981 267.096 47.8981C266.389 47.8981 265.75 48.0647 265.176 48.398C264.603 48.7312 264.15 49.2045 263.817 49.8177C263.483 50.4176 263.317 51.1108 263.317 51.8973C263.317 52.6839 263.483 53.3837 263.817 53.997C264.15 54.5969 264.603 55.0634 265.176 55.3967C265.75 55.73 266.389 55.8966 267.096 55.8966Z" fill="white"></path></svg>